<?xml version="1.0" encoding="utf-8"?>
<!-- Generator: Adobe Illustrator 19.2.0, SVG Export Plug-In . SVG Version: 6.00 Build 0)  -->
<svg version="1.1" id="Layer_1" xmlns="http://www.w3.org/2000/svg" xmlns:xlink="http://www.w3.org/1999/xlink" x="0px" y="0px"
	 viewBox="0 0 2000 985" style="enable-background:new 0 0 2000 985;" xml:space="preserve">
<style type="text/css">
	.st0{fill:none;}
	.st1{fill:#8BC53F;}
	.st2{fill:#FCB813;}
</style>
<path class="st0" d="M419.2,987.6l2.3-2.6h-5.2C417.3,985.9,418.2,986.7,419.2,987.6z"/>
<path class="st1" d="M0,832.3V985h392.8C351.5,941.4,270,871.1,151.6,839.7C97.2,826.2,45.4,823.5,0,832.3z"/>
<path class="st2" d="M1744,0c30.1,28.6,63.9,50.6,96.5,66.8c11.7,5.8,23.4,10.9,34.7,15.2c41,15.8,77.1,22,97.8,20.3
	c0.6-0.1,1.3-0.1,1.9-0.2c7.6-0.9,16-1.3,25.1-1.8V0H1744z"/>
<path class="st2" d="M38.9,102.3c20.7,1.7,56.8-4.5,97.8-20.3c11.3-4.3,22.9-9.4,34.7-15.2C204,50.6,237.7,28.6,267.9,0H0v99.7
	c13.9,0.8,26.2,1.2,37,2.4C37.6,102.2,38.3,102.2,38.9,102.3z"/>
</svg>
