<?xml version="1.0" encoding="utf-8"?>
<!-- Generator: Adobe Illustrator 19.2.0, SVG Export Plug-In . SVG Version: 6.00 Build 0)  -->
<svg version="1.1" id="Layer_1" xmlns="http://www.w3.org/2000/svg" xmlns:xlink="http://www.w3.org/1999/xlink" x="0px" y="0px"
	 viewBox="0 0 1920 1080" style="enable-background:new 0 0 1920 1080;" xml:space="preserve">
<style type="text/css">
	.st0{clip-path:url(#SVGID_2_);fill:#FCB813;}
	.st1{clip-path:url(#SVGID_2_);fill:#8BC53F;}
	.st2{clip-path:url(#SVGID_2_);fill:#0088B8;}
	.st3{clip-path:url(#SVGID_2_);fill:#D8333D;}
	.st4{clip-path:url(#SVGID_4_);fill:#FCB813;}
	.st5{clip-path:url(#SVGID_4_);fill:#8BC53F;}
	.st6{clip-path:url(#SVGID_4_);fill:#0088B8;}
	.st7{clip-path:url(#SVGID_4_);fill:#D8333D;}
	.st8{fill:#FCB813;}
	.st9{fill:#0088B8;}
</style>
<g>
	<defs>
		<polygon id="SVGID_3_" points="-1275.9,0 -105.5,1245 -102,0 		"/>
	</defs>
	<clipPath id="SVGID_2_">
		<use xlink:href="#SVGID_3_"  style="overflow:visible;"/>
	</clipPath>
	<path class="st0" d="M-987.5-509.6c-43.5,120.7-66.8,272.3-27.2,425.6c3.5,13.6,7.5,27.2,12,40.9
		c-15.1,164.5,89.1,334.5,289.8,418.3c34.1,14.3,108.9,38.6,198.5,58c52.2,11.3,103.6,66.1,112.5,82.9c18.7,7.2,35.4,18.5,39.8-11.7
		l-55.9-52.4c1.4-6.2-8.7-18.9-6.8-26.4c135.6-13.9,249.6-83.5,296.8-196.5c1.8-4.4,3.5-8.7,5.1-13.1L52.7,366.9l-0.3,46.6
		l582.7-37.1l1.2-0.1L993-286.2L-292.9-982.5c-77.9,3.8-144.2,14.6-201.2,29.7c-63.5,16.9-115.6,39.2-159.2,63.5
		c-89.6,49.8-143.7,107.7-189.4,142.7c-1,0.8-2,1.6-3,2.4c-32.2,26.1-75.7,85.1-113,164.6C-968.8-557.7-978.6-534.3-987.5-509.6z"/>
	<path class="st1" d="M-453.3,12.4c-6.3,50.8-8.1,92.2-8.3,120.1c-0.2,25.4,0.8,39.6,0.8,39.6c0,6.1,0,12.1,0.1,18.1
		c4.8,339.2,199.3,590.3,199.3,590.3c240.1,349.2,624.9,413.1,624.9,413.1L1051-120.2L231.4-47.9l-1.3-65.7L-358.7-326
		C-416.2-198.6-442-78.1-453.3,12.4z"/>
	<path class="st2" d="M-725.9-667.5l309.8,812.7C-346.8,320.1-182.5,428,5.5,422l705.4-18.8L946.4,81.4L-34.5-614.1l-518-354.7
		L-725.9-667.5z"/>
</g>
<g>
	<path id="XMLID_52_" class="st8" d="M1325.8,773.4l-7.2-16.6c-3.9-9.1,0.3-19.7,9.3-23.6l126.3-54.6c9.1-3.9,19.7,0.3,23.6,9.3
		l7.2,16.6c3.9,9.1-0.3,19.7-9.3,23.6l-126.3,54.6C1340.3,786.6,1329.7,782.4,1325.8,773.4z"/>
	<path id="XMLID_51_" class="st9" d="M973.7,284l-10.2-2.2c-7.5-1.7-12.4-9.2-10.7-16.7l20.5-93.6c1.7-7.5,9.2-12.4,16.7-10.7
		l10.2,2.2c7.5,1.7,12.4,9.2,10.7,16.7l-20.5,93.6C988.8,280.9,981.3,285.7,973.7,284z"/>
	<path id="XMLID_49_" class="st8" d="M1216.6,452.3l-9-10.3c-5.7-6.5-5-16.4,1.5-22l85.3-74.6c6.5-5.7,16.4-5,22,1.5l9,10.3
		c5.7,6.5,5,16.4-1.5,22l-85.3,74.6C1232.2,459.4,1222.3,458.7,1216.6,452.3z"/>
</g>
</svg>
