<?xml version="1.0" encoding="UTF-8" standalone="no"?>
<svg width="118px" height="55px" viewBox="0 0 118 55" version="1.1" xmlns="http://www.w3.org/2000/svg" xmlns:xlink="http://www.w3.org/1999/xlink">
    <!-- Generator: Sketch 50.2 (55047) - http://www.bohemiancoding.com/sketch -->
    <title>grafismos</title>
    <desc>Created with Sketch.</desc>
    <defs></defs>
    <g id="landing_page" stroke="none" stroke-width="1" fill="none" fill-rule="evenodd">
        <g transform="translate(-796.000000, -305.000000)" id="slider">
            <g transform="translate(0.000000, 100.000000)">
                <g id="copy" transform="translate(407.000000, 204.000000)">
                    <g id="grafismos" transform="translate(448.000000, 30.000000) rotate(-270.000000) translate(-448.000000, -30.000000) translate(418.000000, -30.000000)">
                        <path d="M55.4230904,22.2307341 C54.1757771,23.1804263 52.3930874,22.9095019 51.4647218,21.633535 L41.6257551,8.08731147 C40.6973895,6.81134461 40.9593822,4.98770248 42.2095433,4.03801025 L43.1977116,3.28932649 C44.4450248,2.33963426 46.2277146,2.60764557 47.1532325,3.8865256 L56.9950469,17.429836 C57.9234125,18.708716 57.658572,20.529445 56.4112587,21.4791372 L55.4230904,22.2307341 Z" id="Fill-7" fill="#FDB813" transform="translate(49.309986, 12.759606) rotate(15.000000) translate(-49.309986, -12.759606) "></path>
                        <path d="M17.8906091,110.820573 L18.1184289,111.773178 C18.4032036,112.973403 17.677028,114.196933 16.5009084,114.491162 L4.03631879,117.602424 C2.86019919,117.896654 1.66414535,117.153796 1.37652288,115.950659 L1.15155085,115.000967 C0.863928376,113.797829 1.59010392,112.574299 2.76622353,112.280069 L15.2308132,109.168808 C16.4069328,108.874578 17.6029866,109.617435 17.8906091,110.820573" id="Fill-9" fill="#D8343D" transform="translate(9.634449, 113.385616) rotate(-13.000000) translate(-9.634449, -113.385616) "></path>
                        <path d="M21.9682984,58.3602732 C21.4386174,59.6449796 19.977723,60.2509182 18.7247143,59.7090692 L5.42858242,53.961392 C4.17272589,53.4195431 3.58039446,51.9250887 4.11007545,50.6432956 L4.52869429,49.6295137 C5.05837528,48.3448073 6.51926961,47.7388687 7.77227839,48.2807176 L21.071258,54.0283949 C22.3242668,54.5702438 22.9165982,56.0646981 22.3869172,57.3464913 L21.9682984,58.3602732 Z" id="Fill-14" fill="#0088B8"></path>
                    </g>
                </g>
            </g>
        </g>
    </g>
</svg>