<?xml version="1.0" encoding="UTF-8" standalone="no"?>
<svg width="2489px" height="2261px" viewBox="0 0 2489 2261" version="1.1" xmlns="http://www.w3.org/2000/svg" xmlns:xlink="http://www.w3.org/1999/xlink">
    <!-- Generator: Sketch 50.2 (55047) - http://www.bohemiancoding.com/sketch -->
    <title>graficos</title>
    <desc>Created with Sketch.</desc>
    <defs></defs>
    <g id="graficos" stroke="none" stroke-width="1" fill="none" fill-rule="evenodd">
        <path d="M635.545194,1093 C1721.51346,1213.20002 2231.13468,1440.51849 2399,1974.53552 C2315.36514,1967.06226 2225.45663,1964.0799 2138.17632,1978 C2052.06751,1819.8391 1627.22944,1703.56383 1001.27736,1612.01573 C375.325266,1520.46764 635.756376,1125.11596 635.545194,1093 Z" id="grafismo_4-copy" fill="#0088BA" transform="translate(1490.500000, 1535.500000) rotate(12.000000) translate(-1490.500000, -1535.500000) "></path>
        <path d="M2212.07682,228.852267 C2304.34053,75.9728452 2476.98159,57.0543293 2730,172.096719 L2064,1009 C2129.42134,868.937812 2073.68124,458.171399 2212.07682,228.852267 Z" id="grafismo_3-copy" fill="#FDB813" transform="translate(2397.000000, 553.500000) rotate(-41.000000) translate(-2397.000000, -553.500000) "></path>
        <path d="M321.455242,-1465 C1365.03649,-1295.00426 1850.68673,-940.54608 2012,-185.299782 C1922.16246,-165.047623 1847.49517,-223.469563 1765.43634,-213.367685 C1682.68849,-437.050498 1274.43252,-601.495571 672.912309,-730.969646 C71.3921011,-860.443721 321.658182,-1419.57924 321.455242,-1465 Z" id="grafismo_4" fill="#8CC63E" transform="translate(1141.000000, -823.000000) rotate(-80.000000) translate(-1141.000000, 823.000000) "></path>
    </g>
</svg>