<?xml version="1.0" encoding="utf-8"?>
<!-- Generator: Adobe Illustrator 19.2.0, SVG Export Plug-In . SVG Version: 6.00 Build 0)  -->
<svg version="1.1" id="Layer_1" xmlns="http://www.w3.org/2000/svg" xmlns:xlink="http://www.w3.org/1999/xlink" x="0px" y="0px"
	 viewBox="0 0 1920 1080" style="enable-background:new 0 0 1920 1080;" xml:space="preserve">
<style type="text/css">
	.st0{clip-path:url(#SVGID_2_);fill:#FCB813;}
	.st1{clip-path:url(#SVGID_2_);fill:#8BC53F;}
	.st2{clip-path:url(#SVGID_2_);fill:#0088B8;}
	.st3{clip-path:url(#SVGID_2_);fill:#D8333D;}
	.st4{clip-path:url(#SVGID_4_);fill:#FCB813;}
	.st5{clip-path:url(#SVGID_4_);fill:#8BC53F;}
	.st6{clip-path:url(#SVGID_4_);fill:#0088B8;}
	.st7{clip-path:url(#SVGID_4_);fill:#D8333D;}
</style>
<g>
	<defs>
		<polygon id="SVGID_3_" points="746.1,0 1916.5,1245 1920,0 		"/>
	</defs>
	<clipPath id="SVGID_2_">
		<use xlink:href="#SVGID_3_"  style="overflow:visible;"/>
	</clipPath>
	<path class="st0" d="M1034.5-509.6C991-388.9,967.7-237.2,1007.3-84c3.5,13.6,7.5,27.2,12,40.9c-15.1,164.5,89.1,334.5,289.8,418.3
		c34.1,14.3,108.9,38.6,198.5,58c52.2,11.3,103.6,66.1,112.5,82.9c18.7,7.2,35.4,18.5,39.8-11.7l-55.9-52.4
		c1.4-6.2-8.7-18.9-6.8-26.4c135.6-13.9,249.6-83.5,296.8-196.5c1.8-4.4,3.5-8.7,5.1-13.1l175.8,150.9l-0.3,46.6l582.7-37.1l1.2-0.1
		L3015-286.2L1729.1-982.5c-77.9,3.8-144.2,14.6-201.2,29.7c-63.5,16.9-115.6,39.2-159.2,63.5c-89.6,49.8-143.7,107.7-189.4,142.7
		c-1,0.8-2,1.6-3,2.4c-32.2,26.1-75.7,85.1-113,164.6C1053.2-557.7,1043.4-534.3,1034.5-509.6z"/>
	<path class="st1" d="M1568.7,12.4c-6.3,50.8-8.1,92.2-8.3,120.1c-0.2,25.4,0.8,39.6,0.8,39.6c0,6.1,0,12.1,0.1,18.1
		c4.8,339.2,199.3,590.3,199.3,590.3c240.1,349.2,624.9,413.1,624.9,413.1L3073-120.2l-819.6,72.3l-1.3-65.7L1663.3-326
		C1605.8-198.6,1580-78.1,1568.7,12.4z"/>
	<path class="st2" d="M1296.1-667.5l309.8,812.7c69.3,175,233.6,282.8,421.6,276.8l705.4-18.8l235.5-321.8l-980.9-695.5l-518-354.7
		L1296.1-667.5z"/>
</g>
</svg>
