<?xml version="1.0" encoding="UTF-8" standalone="no"?>
<svg width="325px" height="293px" viewBox="0 0 325 293" version="1.1" xmlns="http://www.w3.org/2000/svg" xmlns:xlink="http://www.w3.org/1999/xlink">
    <!-- Generator: Sketch 50.2 (55047) - http://www.bohemiancoding.com/sketch -->
    <title>corazon</title>
    <desc>Created with Sketch.</desc>
    <defs>
        <polygon id="path-1" points="136.345508 0.222073944 146.548264 0.222073944 146.548264 33.3385308 136.345508 33.3385308"></polygon>
    </defs>
    <g id="landing_page" stroke="none" stroke-width="1" fill="none" fill-rule="evenodd">
        <g transform="translate(-412.000000, -1129.000000)" id="intro">
            <g transform="translate(0.000000, 355.000000)">
                <g id="corazon" transform="translate(412.000000, 774.000000)">
                    <path d="M258.632747,123.469631 C257.548468,130.361121 251.163269,135.052511 244.37058,133.952461 C237.581434,132.852411 232.95376,126.374338 234.038039,119.486443 C235.122318,112.594953 241.507516,107.899968 248.300206,109.003613 C255.089351,110.103663 259.717026,116.578141 258.632747,123.469631 M144.546043,92.7077729 C143.142858,97.2589605 138.366361,99.7897947 133.880423,98.3626055 C129.398027,96.9390113 126.899933,92.093039 128.306661,87.5454464 C129.713389,82.9942588 134.486343,80.4598297 138.972282,81.8870189 C143.454677,83.314208 145.952771,88.1565853 144.546043,92.7077729 M265.864817,87.567016 C247.680111,83.1021069 229.467059,85.5430677 213.890292,93.1930891 C213.883205,93.200279 213.883205,93.200279 213.876119,93.2038739 C213.854858,93.2146587 213.830054,93.2254435 213.805251,93.2398233 C209.932319,95.1451388 205.255037,94.1493418 202.579774,90.7269638 C191.783048,76.911629 176.348017,66.6696594 157.968425,62.7080412 C136.431667,58.0669802 114.948061,63.1250536 98,74.9523894 C98.5704867,75.5994777 99.1409733,76.246566 99.729177,76.8720847 L122.049025,100.641794 C122.049025,100.641794 129.38031,110.035359 142.583002,108.910144 C150.254453,108.255866 158.556629,106.983259 164.495359,106.652525 C168.772238,106.41526 172.889663,108.647714 176.170847,111.236067 C183.13362,109.834043 190.479078,111.458953 196.315051,115.898698 L227.716621,139.79423 C227.716621,139.79423 240.292132,151.822882 259.17843,147.350783 C278.061184,142.882279 299.583768,136.788865 301.649568,136.48689 C304.909492,136.005169 311.209649,135.264612 312.471097,138.669016 C314.49792,144.129722 302.978341,148.120099 302.978341,148.120099 L282.260108,157.675436 L258.182736,168.622013 C258.182736,168.622013 251.464458,172.403885 253.020008,180.492488 C254.536582,188.40494 260.946584,242.602178 261.230056,245 L290.980404,229.027704 C296.302584,225.37525 300.742458,220.942696 305.373676,216.107508 L305.373676,216.100318 C313.459705,206.415564 320.114201,194.678101 323.101284,181.251019 C332.370806,139.560559 306.808752,97.6112641 265.864817,87.567016" id="Fill-1" fill="#FFFFFF"></path>
                    <path d="M161.444879,117.333497 L157.101022,118.58981 L139.69716,123.526089 C139.69716,123.526089 134.770332,125.387425 135.029826,130.957198 C135.292874,136.526972 134.283336,175.017131 134.283336,175.017131 C134.283336,175.017131 133.913646,181.885925 131.329372,181.782715 C127.461847,181.62968 121.084697,152.595679 119.236247,145.669942 C118.823901,144.13603 118.056083,142.708887 116.925685,141.594932 C116.260955,140.936524 115.439816,140.331501 114.480045,140.032548 C111.742918,139.174839 83.0812876,154.745291 81.7767088,155.50335 C80.681858,156.143963 78.8831746,156.827283 77.5501582,155.53894 C75.4990902,153.556599 79.1711061,150.360652 79.1711061,150.360652 L104.512637,124.732576 C105.625261,123.604386 106.791206,122.52958 107.967815,121.469009 C109.93357,119.696647 113.825978,114.450739 107.377733,104.015866 C100.310969,92.5809259 93.7987395,82.5624517 92.1244708,80 C91.4952871,80.5231672 90.8696581,81.0570113 90.2546932,81.5979733 C78.4708282,92.0186101 69.7155764,106.055151 65.9724663,122.440606 C61.3868899,142.520262 65.0091398,162.553651 74.6317409,179.035198 L117.025217,237.676192 L151.17532,285.853843 C156.095039,292.797375 165.397717,295.011048 172.912374,291.028571 L253,248.60576 C246.093198,237.021344 236.602121,212.165562 233.48464,204.908842 C232.56397,202.773465 231.149195,200.87298 229.279417,199.495663 C228.177457,198.68422 226.85866,197.986663 225.408338,197.755331 C221.259991,197.089805 183.057518,225.721644 181.329929,227.098961 C179.879607,228.255623 177.423302,229.629382 175.215827,228.045645 C171.824633,225.611316 176.467085,220.205255 176.467085,220.205255 L207.247322,178.37679 C208.797176,176.269885 210.432343,174.227042 212.088838,172.205552 C214.566471,169.180436 218.974312,160.774171 207.496152,147.11488 C197.507416,135.224392 188.197629,124.536833 183.263691,118.913676 C183.263691,118.913676 180.402149,115.002378 176.147161,111.688986 C174.049882,112.105384 171.98815,112.792263 170.011731,113.756742 C166.844484,115.30489 163.727003,116.67153 161.444879,117.333497" id="Fill-3" fill="#FFFFFF"></path>
                    <path d="M222.131074,62.0056721 L219.851179,61.304701 C216.974638,60.4160381 215.366463,57.4053097 216.283162,54.6129166 L225.991486,25.0074208 C226.908186,22.2150277 230.013901,20.6560373 232.894393,21.5447001 L235.174288,22.2495016 C238.050828,23.134334 239.659004,26.1450624 238.742305,28.9374555 L229.033981,58.5429514 C228.117281,61.3353445 225.011566,62.8943349 222.131074,62.0056721" id="Fill-5" fill="#FDB813"></path>
                    <path d="M74.2886171,49.0736283 L72.9175189,50.0618826 C71.1868531,51.3106071 68.7133445,50.9543759 67.4252233,49.2766418 L53.7735104,31.4650807 C52.4853893,29.7873466 52.8489081,27.3894891 54.5835252,26.1407646 L55.9546234,25.1563407 C57.6852892,23.9076162 60.1587978,24.260017 61.4429677,25.9415815 L75.0986319,43.7493122 C76.386753,45.4308768 76.0192829,47.8249038 74.2886171,49.0736283" id="Fill-7" fill="#0088BA"></path>
                    <path d="M23.3129864,173.024771 L23.6290897,174.277326 C24.0242189,175.855469 23.0166395,177.464255 21.384756,177.85113 L4.08995208,181.942043 C2.45806859,182.328918 0.798526056,181.352155 0.39944559,179.770182 L0.0872935426,178.521457 C-0.311786923,176.939484 0.695792471,175.330698 2.32767596,174.943823 L19.6224799,170.85291 C21.2543634,170.466035 22.9139059,171.442798 23.3129864,173.024771" id="Fill-9" fill="#D0343A"></path>
                    <path d="M29.6439845,102.763405 L29.0631446,104.096399 C28.3282043,105.785624 26.3011917,106.582356 24.5626233,105.869894 L6.11404218,98.3124295 C4.37152252,97.5999671 3.54965384,95.6349497 4.2845941,93.9495547 L4.86543399,92.6165604 C5.60037425,90.927335 7.62738691,90.1306028 9.36595528,90.8430652 L27.8184877,98.4005297 C29.5570561,99.1129922 30.3789248,101.07801 29.6439845,102.763405" id="Fill-14" fill="#0088BA"></path>
                    <path d="M53.9872365,228.269545 L54.5325148,229.299934 C55.2200395,230.606115 54.6826638,232.218732 53.3352734,232.885229 L39.0711102,239.960058 C37.727671,240.626555 36.0641772,240.105615 35.3727011,238.799433 L34.8313741,237.769044 C34.1438494,236.466693 34.6812251,234.854077 36.0246642,234.183749 L50.2888274,227.112751 C51.6362179,226.442424 53.2997117,226.967194 53.9872365,228.269545" id="Fill-16" fill="#D0343A"></path>
                    <mask id="mask-2" fill="white">
                        <use xlink:href="#path-1"></use>
                    </mask>
                    <g id="Clip-12"></g>
                    <path d="M142.393854,33.3352472 L140.58259,33.3388956 C138.293355,33.3461925 136.41381,31.4490088 136.406623,29.1213104 L136.345528,4.46521922 C136.338341,2.13752076 138.207104,0.233040213 140.499934,0.225743352 L142.311197,0.222094922 C144.600432,0.214798062 146.479977,2.11198175 146.483571,4.43603178 L146.548259,29.0957713 C146.551853,31.4234698 144.683089,33.3279503 142.393854,33.3352472" id="Fill-11" fill="#FDB813" mask="url(#mask-2)"></path>
                </g>
            </g>
        </g>
    </g>
</svg>