<?xml version="1.0" encoding="UTF-8" standalone="no"?>
<svg width="187px" height="84px" viewBox="0 0 187 84" version="1.1" xmlns="http://www.w3.org/2000/svg" xmlns:xlink="http://www.w3.org/1999/xlink">
    <!-- Generator: Sketch 50.2 (55047) - http://www.bohemiancoding.com/sketch -->
    <title>fund_cafe_logo_blanco</title>
    <desc>Created with Sketch.</desc>
    <defs>
        <polygon id="path-1" points="0.93259425 0.962 3.77160144 0.962 3.77160144 10.0389057 0.93259425 10.0389057"></polygon>
    </defs>
    <g id="fund_cafe_logo_blanco" stroke="none" stroke-width="1" fill="none" fill-rule="evenodd">
        <g id="fund_cafe_logo">
            <path d="M68.2944,35.4961 C67.9884,37.4131 66.1864,38.7181 64.2694,38.4121 C62.3534,38.1061 61.0474,36.3041 61.3534,34.3881 C61.6594,32.4711 63.4614,31.1651 65.3784,31.4721 C67.2944,31.7781 68.6004,33.5791 68.2944,35.4961 M36.0974,26.9391 C35.7014,28.2051 34.3534,28.9091 33.0874,28.5121 C31.8224,28.1161 31.1174,26.7681 31.5144,25.5031 C31.9114,24.2371 33.2584,23.5321 34.5244,23.9291 C35.7894,24.3261 36.4944,25.6731 36.0974,26.9391 M70.3354,25.5091 C65.2034,24.2671 60.0634,24.9461 55.6674,27.0741 C55.6654,27.0761 55.6654,27.0761 55.6634,27.0771 C55.6574,27.0801 55.6504,27.0831 55.6434,27.0871 C54.5504,27.6171 53.2304,27.3401 52.4754,26.3881 C49.4284,22.5451 45.0724,19.6961 39.8854,18.5941 C33.8074,17.3031 27.7444,18.7101 22.9614,22.0001 C23.1224,22.1801 23.2834,22.3601 23.4494,22.5341 L29.7484,29.1461 C29.7484,29.1461 31.8174,31.7591 35.5434,31.4461 C37.7084,31.2641 40.0514,30.9101 41.7274,30.8181 C42.9344,30.7521 44.0964,31.3731 45.0224,32.0931 C46.9874,31.7031 49.0604,32.1551 50.7074,33.3901 L59.5694,40.0371 C59.5694,40.0371 63.1184,43.3831 68.4484,42.1391 C73.7774,40.8961 79.8514,39.2011 80.4344,39.1171 C81.3544,38.9831 83.1324,38.7771 83.4884,39.7241 C84.0604,41.2431 80.8094,42.3531 80.8094,42.3531 L74.9624,45.0111 L68.1674,48.0561 C68.1674,48.0561 66.2714,49.1081 66.7104,51.3581 C67.1384,53.5591 68.9474,68.6351 69.0274,69.3021 L77.4234,64.8591 C78.9254,63.8431 80.1784,62.6101 81.4854,61.2651 L81.4854,61.2631 C83.7674,58.5691 85.6454,55.3041 86.4884,51.5691 C89.1044,39.9721 81.8904,28.3031 70.3354,25.5091" id="Fill-1" fill="#FFFFFF"></path>
            <path d="M40.8867,33.6793 L39.6647,34.0323 L34.7687,35.4193 C34.7687,35.4193 33.3827,35.9423 33.4557,37.5073 C33.5297,39.0723 33.2457,49.8873 33.2457,49.8873 C33.2457,49.8873 33.1417,51.8173 32.4147,51.7883 C31.3267,51.7453 29.5327,43.5873 29.0127,41.6413 C28.8967,41.2103 28.6807,40.8093 28.3627,40.4963 C28.1757,40.3113 27.9447,40.1413 27.6747,40.0573 C26.9047,39.8163 18.8417,44.1913 18.4747,44.4043 C18.1667,44.5843 17.6607,44.7763 17.2857,44.4143 C16.7087,43.8573 17.7417,42.9593 17.7417,42.9593 L24.8707,35.7583 C25.1837,35.4413 25.5117,35.1393 25.8427,34.8413 C26.3957,34.3433 27.4907,32.8693 25.6767,29.9373 C23.6887,26.7243 21.8567,23.9093 21.3857,23.1893 C21.2087,23.3363 21.0327,23.4863 20.8597,23.6383 C17.5447,26.5663 15.0817,30.5103 14.0287,35.1143 C12.7387,40.7563 13.7577,46.3853 16.4647,51.0163 L28.3907,67.4933 L37.9977,81.0303 C39.3817,82.9813 41.9987,83.6033 44.1127,82.4843 L66.6427,70.5643 C64.6997,67.3093 62.0297,60.3253 61.1527,58.2863 C60.8937,57.6863 60.4957,57.1523 59.9697,56.7653 C59.6597,56.5373 59.2887,56.3413 58.8807,56.2763 C57.7137,56.0893 46.9667,64.1343 46.4807,64.5213 C46.0727,64.8463 45.3817,65.2323 44.7607,64.7873 C43.8067,64.1033 45.1127,62.5843 45.1127,62.5843 L53.7717,50.8313 C54.2077,50.2393 54.6677,49.6653 55.1337,49.0973 C55.8307,48.2473 57.0707,45.8853 53.8417,42.0473 C51.0317,38.7063 48.4127,35.7033 47.0247,34.1233 C47.0247,34.1233 46.2197,33.0243 45.0227,32.0933 C44.4327,32.2103 43.8527,32.4033 43.2967,32.6743 C42.4057,33.1093 41.5287,33.4933 40.8867,33.6793" id="Fill-3" fill="#FFFFFF"></path>
            <path d="M56.2495,18.0549 L55.6725,17.8719 C54.9445,17.6399 54.5375,16.8539 54.7695,16.1249 L57.2265,8.3959 C57.4585,7.6669 58.2445,7.2599 58.9735,7.4919 L59.5505,7.6759 C60.2785,7.9069 60.6855,8.6929 60.4535,9.4219 L57.9965,17.1509 C57.7645,17.8799 56.9785,18.2869 56.2495,18.0549" id="Fill-5" fill="#FDB813"></path>
            <path d="M18.7248,14.7204 L18.3778,14.9784 C17.9398,15.3044 17.3138,15.2114 16.9878,14.7734 L13.5328,10.1234 C13.2068,9.6854 13.2988,9.0594 13.7378,8.7334 L14.0848,8.4764 C14.5228,8.1504 15.1488,8.2424 15.4738,8.6814 L18.9298,13.3304 C19.2558,13.7694 19.1628,14.3944 18.7248,14.7204" id="Fill-7" fill="#0088BA"></path>
            <path d="M5.9004,47.1049 L5.9804,47.4319 C6.0804,47.8439 5.8254,48.2639 5.4124,48.3649 L1.0354,49.4329 C0.6224,49.5339 0.2024,49.2789 0.1014,48.8659 L0.0224,48.5399 C-0.0786,48.1269 0.1764,47.7069 0.5894,47.6059 L4.9664,46.5379 C5.3794,46.4369 5.7994,46.6919 5.9004,47.1049" id="Fill-9" fill="#D0343A"></path>
            <g id="Group-13" transform="translate(34.000000, 0.038500)">
                <mask id="mask-2" fill="white">
                    <use xlink:href="#path-1"></use>
                </mask>
                <g id="Clip-12"></g>
                <path d="M2.6156,10.0379 L2.1116,10.0389 C1.4746,10.0409 0.9516,9.5209 0.9496,8.8829 L0.9326,2.1249 C0.9306,1.4869 1.4506,0.9649 2.0886,0.9629 L2.5926,0.9619 C3.2296,0.9599 3.7526,1.4799 3.7536,2.1169 L3.7716,8.8759 C3.7726,9.5139 3.2526,10.0359 2.6156,10.0379" id="Fill-11" fill="#FDB813" mask="url(#mask-2)"></path>
            </g>
            <path d="M7.4793,28.7489 L7.3323,29.0969 C7.1463,29.5379 6.6333,29.7459 6.1933,29.5599 L1.5243,27.5869 C1.0833,27.4009 0.8753,26.8879 1.0613,26.4479 L1.2083,26.0999 C1.3943,25.6589 1.9073,25.4509 2.3473,25.6369 L7.0173,27.6099 C7.4573,27.7959 7.6653,28.3089 7.4793,28.7489" id="Fill-14" fill="#0088BA"></path>
            <path d="M13.6198,61.5534 L13.7578,61.8224 C13.9318,62.1634 13.7958,62.5844 13.4548,62.7584 L9.8448,64.6054 C9.5048,64.7794 9.0838,64.6434 8.9088,64.3024 L8.7718,64.0334 C8.5978,63.6934 8.7338,63.2724 9.0738,63.0974 L12.6838,61.2514 C13.0248,61.0764 13.4458,61.2134 13.6198,61.5534" id="Fill-16" fill="#D0343A"></path>
            <path d="M110.1578,48.9093 C109.0468,47.7293 107.8668,47.0693 106.2708,47.0693 C102.3138,47.0693 100.9258,50.9573 100.9258,55.8513 C100.9258,60.7103 102.1408,64.7013 106.5828,64.7013 C108.6998,64.7013 110.6438,63.8683 110.9558,63.7983 L111.9278,66.7143 C111.9628,66.6793 109.3598,67.8943 105.7848,67.8943 C99.6068,67.8943 96.4488,63.7983 96.4488,56.2323 C96.4488,48.9443 99.7458,43.8773 106.6868,43.8773 C109.4638,43.8773 111.1648,45.0913 112.2748,46.3753 L110.1578,48.9093 Z" id="Fill-18" fill="#FFFFFF"></path>
            <path d="M132.75,58.4886 C131.292,54.3586 130.182,50.7146 129.626,48.8056 C129.002,50.8526 127.891,54.4626 126.468,58.4886 L132.75,58.4886 Z M128.065,44.1886 L131.327,44.1886 L140.386,67.6866 L135.978,67.6866 L133.826,61.5426 L125.357,61.5426 L123.136,67.6866 L119.041,67.6866 L128.065,44.1886 Z" id="Fill-20" fill="#FFFFFF"></path>
            <polygon id="Fill-22" fill="#FFFFFF" points="148.887 44.189 162.84 44.189 162.84 47.313 153.017 47.313 153.017 54.081 161.104 54.081 160.584 57.205 153.017 57.205 153.017 67.686 148.887 67.686"></polygon>
            <polygon id="Fill-24" fill="#FFFFFF" points="172.0695 44.189 186.0225 44.189 186.0225 47.313 176.1995 47.313 176.1995 53.873 184.2865 53.873 183.7665 57.031 176.1995 57.031 176.1995 64.563 186.5425 64.563 186.5425 67.686 172.0695 67.686"></polygon>
            <polygon id="Fill-26" fill="#FFFFFF" points="96.6098 28.4601 102.8958 28.4601 102.8958 29.8671 98.4708 29.8671 98.4708 32.9161 102.1138 32.9161 101.8798 34.3241 98.4708 34.3241 98.4708 39.0461 96.6098 39.0461"></polygon>
            <path d="M110.8236,31.2591 L112.6066,31.2591 L112.6066,35.2781 C112.6066,37.7481 113.3566,38.6081 113.3566,38.6081 L111.9656,39.1711 C111.9656,39.1711 111.3246,38.5771 111.1836,37.4361 C110.6206,38.6551 109.5106,39.1401 108.3996,39.1401 C106.7576,39.1401 106.1166,38.1081 106.1166,36.4511 L106.1166,31.2591 L107.8996,31.2591 L107.8996,36.4191 C107.8996,37.2791 108.1806,37.8261 108.9316,37.8261 C109.8546,37.8261 110.8236,36.7321 110.8236,35.0741 L110.8236,31.2591 Z" id="Fill-28" fill="#FFFFFF"></path>
            <path d="M122.5981,39.0462 L122.5981,33.9952 C122.5981,33.1202 122.3161,32.5412 121.5661,32.5412 C120.6281,32.5412 119.6741,33.5422 119.6741,35.1842 L119.6741,39.0462 L117.8911,39.0462 L117.8911,35.1052 C117.8911,32.6192 117.1251,31.7752 117.1251,31.7752 L118.5321,31.2122 C118.5321,31.2122 119.1271,31.7902 119.2981,32.9012 C119.8461,31.6502 120.9561,31.1342 122.0821,31.1342 C123.6931,31.1342 124.3651,32.1812 124.3651,33.8232 L124.3651,39.0462 L122.5981,39.0462 Z" id="Fill-30" fill="#FFFFFF"></path>
            <path d="M133.8095,34.8085 L133.8095,32.5565 C133.6065,32.4945 133.1055,32.3845 132.7775,32.3845 C131.2135,32.3845 130.7605,33.5265 130.7605,35.1055 C130.7605,36.5595 130.8695,37.8735 132.0115,37.8735 C133.0435,37.8735 133.8095,36.3415 133.8095,34.8085 Z M134.9515,39.1715 C134.8885,39.1085 134.2475,38.4995 134.1535,37.2485 C133.8095,38.4995 133.0435,39.1405 131.7145,39.1405 C129.7595,39.1405 128.8365,37.6075 128.8365,35.2625 C128.8365,32.8855 130.3535,31.1335 132.5745,31.1335 C132.9495,31.1335 133.3875,31.1805 133.8095,31.2435 L133.8095,27.7095 L135.5925,28.0225 L135.5925,35.2775 C135.5925,37.7635 136.2955,38.4995 136.3425,38.6085 L134.9515,39.1715 Z" id="Fill-32" fill="#FFFFFF"></path>
            <path d="M145.1617,34.8085 L145.1617,32.5565 C144.9587,32.4945 144.4577,32.3845 144.1297,32.3845 C142.5657,32.3845 142.1127,33.5265 142.1127,35.1055 C142.1127,36.5595 142.2217,37.8895 143.3637,37.8895 C144.3957,37.8895 145.1617,36.3415 145.1617,34.8085 Z M146.9447,35.2775 C146.9447,37.7485 147.6947,38.6085 147.6947,38.6085 L146.3037,39.1715 C146.3037,39.1715 145.5837,38.5145 145.5057,37.2485 C145.1617,38.4995 144.3957,39.1405 143.0667,39.1405 C141.1117,39.1405 140.1887,37.6075 140.1887,35.2625 C140.1887,32.8855 141.7057,31.1335 143.9267,31.1335 C145.1777,31.1335 146.8037,31.5555 146.9447,31.5875 L146.9447,35.2775 Z" id="Fill-34" fill="#FFFFFF"></path>
            <path d="M156.2327,33.0885 C155.9197,32.7445 155.6387,32.4475 155.1067,32.4475 C154.4657,32.4475 153.4647,32.6665 153.4647,35.1055 C153.4647,37.5445 154.4497,37.8735 155.1847,37.8735 C155.7637,37.8735 156.5137,37.6235 156.7177,37.5605 L157.1557,38.6865 C157.0457,38.7335 156.2637,39.1555 154.9507,39.1555 C152.5417,39.1555 151.5417,37.6235 151.5417,35.3405 C151.5417,32.5875 153.1057,31.0715 155.1227,31.0715 C156.0917,31.0715 156.7637,31.4785 157.2337,32.1345 L156.2327,33.0885 Z" id="Fill-36" fill="#FFFFFF"></path>
            <path d="M161.33,37.3419 L161.33,31.2589 L163.113,31.2589 L163.113,37.1859 C163.113,37.6539 163.253,37.7949 163.551,37.7949 C163.707,37.7949 163.957,37.7639 163.957,37.7639 L164.145,38.8899 C164.145,38.8899 163.77,39.1089 163.034,39.1089 C161.94,39.1089 161.33,38.3739 161.33,37.3419 M163.285,28.8509 C163.285,29.4769 162.909,29.9459 162.206,29.9459 C161.533,29.9459 161.158,29.4769 161.158,28.8979 C161.158,28.2569 161.533,27.7879 162.253,27.7879 C162.909,27.7879 163.285,28.2259 163.285,28.8509" id="Fill-38" fill="#FFFFFF"></path>
            <path d="M170.4777,29.8203 L173.1357,26.8653 L174.3247,27.9753 C173.0887,29.5083 171.2437,30.6333 171.2437,30.6333 L170.4777,29.8203 Z M169.8207,35.0743 C169.8207,36.6223 170.1337,37.8893 171.4787,37.8893 C172.6827,37.8893 172.9637,36.7163 172.9637,35.2153 C172.9637,33.6513 172.6517,32.3853 171.3067,32.3853 C170.1027,32.3853 169.8207,33.5573 169.8207,35.0743 Z M174.8867,35.0583 C174.8867,37.4043 173.7147,39.2023 171.3217,39.2023 C168.9297,39.2023 167.8977,37.7013 167.8977,35.2313 C167.8977,32.8693 169.0707,31.0713 171.4627,31.0713 C173.8557,31.0713 174.8867,32.5723 174.8867,35.0583 Z" id="Fill-40" fill="#FFFFFF"></path>
            <path d="M184.2695,39.0462 L184.2695,33.9952 C184.2695,33.1202 183.9875,32.5412 183.2375,32.5412 C182.2995,32.5412 181.3455,33.5422 181.3455,35.1842 L181.3455,39.0462 L179.5625,39.0462 L179.5625,35.1052 C179.5625,32.6192 178.7965,31.7752 178.7965,31.7752 L180.2035,31.2122 C180.2035,31.2122 180.7985,31.7902 180.9695,32.9012 C181.5175,31.6502 182.6275,31.1342 183.7535,31.1342 C185.3645,31.1342 186.0365,32.1812 186.0365,33.8232 L186.0365,39.0462 L184.2695,39.0462 Z" id="Fill-42" fill="#FFFFFF"></path>
        </g>
    </g>
</svg>